<?xml version="1.0" encoding="UTF-8"?><svg id="Calque_2" xmlns="http://www.w3.org/2000/svg" viewBox="0 0 200.86 200.86"><defs><style>.cls-1,.cls-2{fill:#fff;}.cls-2{isolation:isolate;}</style></defs><g id="Calque_1-2"><g><rect width="200.86" height="200.86"/><path class="cls-1" d="m120.54,56.14c0,21.17-16.59,27.88-42.03,27.88h-1.32l-.71,4.99c-.81,5.7-2.65,15.06.71,16.89l-.2.31c-4.78.71-10.07,1.22-15.26,1.22-12.82,0-22.18-4.07-20.25-18.42l4.68-35.51c.71-5.7,2.75-15.67-.61-17.5l.2-.31c6.21-.92,26.46-1.93,38.87-1.93,20.76,0,35.92,6.51,35.92,22.39Zm-36.12-21.17h-.71l-6.41,47.83h.92c8.05-25.32,8.05-35.39,6.21-47.83Z"/><path class="cls-1" d="m154.11,138.74c0,11.3-8.75,23.81-42.74,23.81-26.25,0-34.5-2.85-32.46-18.42l4.58-35.51c.81-5.7,2.75-15.67-.61-17.5l.2-.31c6.21-.92,26.56-1.93,36.43-1.93,22.9,0,34.09,4.78,34.09,15.67,0,10.07-6.61,16.99-21.37,17.2l-.1.41c6.82,0,21.98,2.95,21.98,16.59Zm-36.12-16.28h-1.32l-5.19,39.28h.71c6.29-14.44,7.21-29.16,5.8-39.28Zm3.66-32.46h-.71l-4.07,31.24h1.32c4.14-10.39,4.52-23.59,3.46-31.24Z"/><path class="cls-2" d="m157.21,60.82l3.11-1.46c.12-.06.24-.12.36-.18,1.96-1.05,3.24-3.06,3.52-5.27l.89-6.83,1.65,7.21c.41,1.79,1.56,3.36,3.21,4.15.11.06.23.11.35.16l3.74,1.54-3.84,2.19c-.5.29-1.03.74-1.48,1.26-.66.74-1.09,1.67-1.27,2.65l-1.17,6.33-2.13-6.38c-.42-1.26-1.24-2.38-2.39-3.05-.11-.06-.22-.12-.33-.18l-4.22-2.13Z"/><path class="cls-2" d="m32.18,141.11l-1.33-3.16c-.05-.12-.11-.24-.17-.36-.98-2-2.92-3.36-5.12-3.73l-6.79-1.16,7.27-1.36c1.8-.34,3.41-1.42,4.28-3.04.06-.11.12-.23.17-.34l1.69-3.68,2.03,3.92c.13.25.3.51.5.77.89,1.13,2.17,1.88,3.57,2.2l5.99,1.36-6.46,1.87c-1.28.37-2.43,1.15-3.15,2.27-.07.1-.13.21-.19.32l-2.3,4.13Z"/></g></g></svg>