<svg xmlns="http://www.w3.org/2000/svg" xmlns:xlink="http://www.w3.org/1999/xlink" width="1466" height="894" viewBox="0 0 1466 894">
  <defs>
    <clipPath id="clip-path">
      <rect id="Rectangle_70" data-name="Rectangle 70" width="463.646" height="463.641" fill="none"/>
    </clipPath>
    <clipPath id="clip-path-2">
      <rect id="Rectangle_69" data-name="Rectangle 69" width="463.645" height="463.642" fill="none"/>
    </clipPath>
    <clipPath id="clip-path-3">
      <rect id="Rectangle_68" data-name="Rectangle 68" width="463.643" height="463.641" fill="none"/>
    </clipPath>
  </defs>
  <g id="Groupe_73" data-name="Groupe 73" transform="translate(2911 -9517)">
    <rect id="Rectangle_71" data-name="Rectangle 71" width="1466" height="894" transform="translate(-2911 9517)" fill="#333334"/>
    <path id="Rectangle_71_-_Contour" data-name="Rectangle 71 - Contour" d="M1,1V893H1465V1H1M0,0H1466V894H0Z" transform="translate(-2911 9517)" fill="#707070"/>
    <g id="Groupe_67" data-name="Groupe 67" transform="translate(-2410 9732.655)">
      <g id="Groupe_72" data-name="Groupe 72" clip-path="url(#clip-path)">
        <g id="Groupe_71" data-name="Groupe 71" transform="translate(0 -0.001)">
          <g id="Groupe_70" data-name="Groupe 70" clip-path="url(#clip-path-2)">
            <g id="Groupe_69" data-name="Groupe 69" transform="translate(0.003 0.001)" opacity="0.8">
              <g id="Groupe_68" data-name="Groupe 68">
                <g id="Groupe_67-2" data-name="Groupe 67" clip-path="url(#clip-path-3)">
                  <path id="Tracé_41" data-name="Tracé 41" d="M234.307,2.5a239.946,239.946,0,0,1,36.155,2.771,247.347,247.347,0,0,1,69.346,21.4A238.264,238.264,0,0,1,371.24,44.785a209.789,209.789,0,0,1,49.6,47.537,214.919,214.919,0,0,1,31.8,60.917,254.79,254.79,0,0,1,9.787,39.917,256.288,256.288,0,0,1,0,81.864,254.219,254.219,0,0,1-9.789,39.9,214.714,214.714,0,0,1-31.815,60.875,210.419,210.419,0,0,1-49.58,47.519,238.785,238.785,0,0,1-31.428,18.15,247.033,247.033,0,0,1-69.338,21.457,239.228,239.228,0,0,1-36.168,2.781h-.193a229.593,229.593,0,0,1-40.4-3.589,213.441,213.441,0,0,1-39.069-10.91,222.481,222.481,0,0,1-31.4-15.115,238.481,238.481,0,0,1-28.9-19.808A250.133,250.133,0,0,1,68.463,392.4,254.364,254.364,0,0,1,46.115,365.1a250.06,250.06,0,0,1-18.291-30.111A238.449,238.449,0,0,1,14.112,302.7,208.83,208.83,0,0,1,14.1,165.475a238.593,238.593,0,0,1,13.7-32.3,249.992,249.992,0,0,1,18.282-30.125A254.047,254.047,0,0,1,68.428,75.731,249.619,249.619,0,0,1,94.315,51.857a237.887,237.887,0,0,1,28.912-19.8,221.927,221.927,0,0,1,31.421-15.1A213.957,213.957,0,0,1,193.72,6.076,230.185,230.185,0,0,1,234.113,2.5Zm0,462.2a238.229,238.229,0,0,0,36.016-2.77,246.039,246.039,0,0,0,69.057-21.37,237.783,237.783,0,0,0,31.3-18.073,209.422,209.422,0,0,0,49.345-47.293A213.72,213.72,0,0,0,451.688,314.6a253.218,253.218,0,0,0,9.75-39.739,255.288,255.288,0,0,0,0-81.545,253.8,253.8,0,0,0-9.748-39.759,213.92,213.92,0,0,0-31.65-60.634,208.791,208.791,0,0,0-49.362-47.311,237.26,237.26,0,0,0-31.3-18.042A246.345,246.345,0,0,0,270.311,6.256a238.948,238.948,0,0,0-36-2.759h-.193A229.18,229.18,0,0,0,193.9,7.06a212.956,212.956,0,0,0-38.89,10.83,220.93,220.93,0,0,0-31.279,15.029,236.88,236.88,0,0,0-28.79,19.719A248.607,248.607,0,0,0,69.156,76.417,253.051,253.051,0,0,0,46.9,103.624a248.983,248.983,0,0,0-18.209,30A237.57,237.57,0,0,0,15.048,165.8a207.83,207.83,0,0,0,.011,136.581A237.427,237.427,0,0,0,28.713,334.53a249.052,249.052,0,0,0,18.218,29.99,253.342,253.342,0,0,0,22.26,27.2,249.123,249.123,0,0,0,25.781,23.776,237.465,237.465,0,0,0,28.78,19.725,221.457,221.457,0,0,0,31.257,15.047,212.44,212.44,0,0,0,38.886,10.859,228.585,228.585,0,0,0,40.22,3.573Z" transform="translate(-2.293 -2.277)" fill="#fff" opacity="0.755"/>
                  <path id="Tracé_42" data-name="Tracé 42" d="M311.756,511a193.285,193.285,0,0,1-35.677-3.324,188.29,188.29,0,0,1-34.426-9.936,201.99,201.99,0,0,1-28.531-14.056,223.974,223.974,0,0,1-26.442-18.428,239.793,239.793,0,0,1-23.825-22.128,245.044,245.044,0,0,1-20.681-25.158,237.983,237.983,0,0,1-17.01-27.519,220.305,220.305,0,0,1-12.808-29.212A196.461,196.461,0,0,1,104.279,331a168.137,168.137,0,0,1,0-61.256,196.983,196.983,0,0,1,8.091-30.312,220.662,220.662,0,0,1,12.836-29.285,237.972,237.972,0,0,1,17.052-27.582,244.552,244.552,0,0,1,20.74-25.2,238.887,238.887,0,0,1,23.9-22.145,222.82,222.82,0,0,1,26.539-18.411,200.877,200.877,0,0,1,28.651-14,188.226,188.226,0,0,1,34.224-9.747,194.81,194.81,0,0,1,35.428-3.248h.313a234.413,234.413,0,0,1,66.316,9.71,227.291,227.291,0,0,1,31.429,11.938,215.482,215.482,0,0,1,29.23,16.554,186.507,186.507,0,0,1,73.8,99.2c6.513,20.831,9.815,45.455,9.816,73.189,0,27.932-3.363,52.722-10,73.682a186.674,186.674,0,0,1-73.412,98.4,216.607,216.607,0,0,1-29.258,16.658,227.379,227.379,0,0,1-31.466,12.038A233.125,233.125,0,0,1,312.06,511Zm-.009-420.183A193.807,193.807,0,0,0,276.5,94.05a187.225,187.225,0,0,0-34.042,9.695,199.881,199.881,0,0,0-28.508,13.927A221.815,221.815,0,0,0,187.532,136a237.874,237.874,0,0,0-23.8,22.052,243.544,243.544,0,0,0-20.655,25.1,236.966,236.966,0,0,0-16.98,27.465,219.653,219.653,0,0,0-12.778,29.152,195.98,195.98,0,0,0-8.05,30.158,167.139,167.139,0,0,0,0,60.9,195.463,195.463,0,0,0,8.035,30.083,219.3,219.3,0,0,0,12.75,29.079,236.99,236.99,0,0,0,16.938,27.4,244.045,244.045,0,0,0,20.6,25.055,238.8,238.8,0,0,0,23.725,22.035,222.98,222.98,0,0,0,26.323,18.345,200.984,200.984,0,0,0,28.389,13.987,187.289,187.289,0,0,0,34.242,9.883A192.283,192.283,0,0,0,311.756,510h.3a232.127,232.127,0,0,0,66.173-9.772,226.37,226.37,0,0,0,31.327-11.984,215.612,215.612,0,0,0,29.122-16.581A185.675,185.675,0,0,0,511.7,373.79c6.6-20.863,9.95-45.551,9.95-73.381,0-27.633-3.287-52.157-9.77-72.891a185.507,185.507,0,0,0-73.405-98.669,214.485,214.485,0,0,0-29.094-16.477,226.29,226.29,0,0,0-31.29-11.885,233.414,233.414,0,0,0-66.033-9.669Z" transform="translate(-77.483 -68.628)" fill="#fff" opacity="0.755"/>
                  <path id="Tracé_43" data-name="Tracé 43" d="M408.354,556.041a170.376,170.376,0,0,1-31.661-2.979,168.61,168.61,0,0,1-30.547-8.838,181.51,181.51,0,0,1-25.784-12.709,203.228,203.228,0,0,1-23.935-16.7,218.993,218.993,0,0,1-21.6-20.047,224.288,224.288,0,0,1-18.772-22.763c-23.875-33.2-37.024-70.682-37.025-105.552a151.343,151.343,0,0,1,2.553-27.3,175.861,175.861,0,0,1,7.334-27.123,199.677,199.677,0,0,1,11.626-26.309,217.132,217.132,0,0,1,15.43-24.86,223.818,223.818,0,0,1,18.748-22.776,218.266,218.266,0,0,1,21.581-20.055,202.421,202.421,0,0,1,23.932-16.7,180.827,180.827,0,0,1,25.8-12.7,168.367,168.367,0,0,1,30.608-8.81,171.915,171.915,0,0,1,31.7-2.955h.272a210.023,210.023,0,0,1,58.191,8.336,198.958,198.958,0,0,1,52.859,24.05,176.018,176.018,0,0,1,42.622,38.615,161.748,161.748,0,0,1,27.46,52.023c5.685,18.187,8.449,39.958,8.45,66.559,0,26.387-2.716,47.974-8.3,65.993a162.1,162.1,0,0,1-27.4,52.184,176.36,176.36,0,0,1-42.629,38.8,198.871,198.871,0,0,1-52.932,24.2,209.408,209.408,0,0,1-58.322,8.4Zm-.011-378.165a170.91,170.91,0,0,0-31.515,2.938,167.359,167.359,0,0,0-30.426,8.758A179.818,179.818,0,0,0,320.747,202.2a201.407,201.407,0,0,0-23.813,16.613,217.267,217.267,0,0,0-21.482,19.963,222.822,222.822,0,0,0-18.664,22.674,216.129,216.129,0,0,0-15.358,24.745,198.671,198.671,0,0,0-11.568,26.177,174.861,174.861,0,0,0-7.293,26.968,150.341,150.341,0,0,0-2.537,27.119c0,34.662,13.084,71.94,36.837,104.968a223.274,223.274,0,0,0,18.688,22.661,217.993,217.993,0,0,0,21.5,19.955,202.212,202.212,0,0,0,23.816,16.614,180.507,180.507,0,0,0,25.641,12.639,167.611,167.611,0,0,0,30.366,8.785,169.372,169.372,0,0,0,31.475,2.961h.26a208.4,208.4,0,0,0,58.043-8.359A197.871,197.871,0,0,0,519.323,522.6a175.362,175.362,0,0,0,42.388-38.581,161.1,161.1,0,0,0,27.227-51.863c5.558-17.921,8.26-39.411,8.259-65.7,0-26.5-2.75-48.172-8.4-66.26A160.751,160.751,0,0,0,561.5,248.5,175.02,175.02,0,0,0,519.121,210.1a197.958,197.958,0,0,0-52.594-23.928,209.022,209.022,0,0,0-57.913-8.3Z" transform="translate(-166.815 -134.779)" fill="#fff" opacity="0.755"/>
                  <path id="Tracé_44" data-name="Tracé 44" d="M519.635,600.878v-1a184.941,184.941,0,0,0,66.7-12.47,172.558,172.558,0,0,0,30.381-15.377,157.8,157.8,0,0,0,26.556-21.28,133.182,133.182,0,0,0,19.953-25.727,157.97,157.97,0,0,0,13.649-29.483,185.835,185.835,0,0,0,7.831-31.491,203.062,203.062,0,0,0,0-63.517A186.341,186.341,0,0,0,676.882,369a158.1,158.1,0,0,0-13.646-29.527,133.012,133.012,0,0,0-19.963-25.758,156.885,156.885,0,0,0-26.557-21.254,172.123,172.123,0,0,0-30.389-15.326,184,184,0,0,0-32.828-9.281,186.5,186.5,0,0,0-33.869-3.119h0a144.848,144.848,0,0,0-32.665,3.786,159.431,159.431,0,0,0-30.938,10.693,176.558,176.558,0,0,0-28.4,16.6,189.011,189.011,0,0,0-25.053,21.509,190.954,190.954,0,0,0-20.892,25.411,180.678,180.678,0,0,0-15.921,28.306,161.669,161.669,0,0,0-10.141,30.193,137.268,137.268,0,0,0,.006,62.126,161.6,161.6,0,0,0,10.153,30.184,180.833,180.833,0,0,0,15.935,28.3,191.265,191.265,0,0,0,20.905,25.415,189.337,189.337,0,0,0,25.061,21.516,176.736,176.736,0,0,0,28.4,16.61A159.376,159.376,0,0,0,487,596.089a144.517,144.517,0,0,0,32.632,3.789l0,.5,0,.5a145.527,145.527,0,0,1-32.861-3.815A160.373,160.373,0,0,1,455.655,586.3a177.735,177.735,0,0,1-28.561-16.7,190.335,190.335,0,0,1-25.194-21.63,192.265,192.265,0,0,1-21.015-25.549,181.835,181.835,0,0,1-16.023-28.462,162.6,162.6,0,0,1-10.216-30.371,138.267,138.267,0,0,1-.006-62.568,162.671,162.671,0,0,1,10.2-30.38,181.685,181.685,0,0,1,16.009-28.464,191.948,191.948,0,0,1,21-25.545A190.007,190.007,0,0,1,427.04,295,177.555,177.555,0,0,1,455.6,278.3a160.43,160.43,0,0,1,31.132-10.76,145.936,145.936,0,0,1,32.393-3.811h1a187.544,187.544,0,0,1,33.553,3.135,185.011,185.011,0,0,1,33.006,9.331,173.121,173.121,0,0,1,30.566,15.416,157.89,157.89,0,0,1,26.726,21.39,134.014,134.014,0,0,1,20.114,25.952,159.094,159.094,0,0,1,13.733,29.714,187.344,187.344,0,0,1,7.866,31.7,204.062,204.062,0,0,1,0,63.832,186.842,186.842,0,0,1-7.873,31.661,158.965,158.965,0,0,1-13.736,29.67,134.184,134.184,0,0,1-20.1,25.92,158.811,158.811,0,0,1-26.724,21.416,173.556,173.556,0,0,1-30.557,15.466,185.942,185.942,0,0,1-67.06,12.538Z" transform="translate(-267.133 -200.776)" fill="#fff" opacity="0.755"/>
                  <path id="Tracé_45" data-name="Tracé 45" d="M640.955,645.569h0A131.933,131.933,0,0,1,612,642.316a141.82,141.82,0,0,1-27.33-9.214,153.651,153.651,0,0,1-25.014-14.363,162.966,162.966,0,0,1-40.332-40.93,156.086,156.086,0,0,1-13.944-24.953,143.2,143.2,0,0,1-8.875-26.871,127.432,127.432,0,0,1,0-55.975,143.255,143.255,0,0,1,8.867-26.877A155.993,155.993,0,0,1,519.3,418.181a162.761,162.761,0,0,1,40.32-40.923A153.538,153.538,0,0,1,584.634,362.9a141.865,141.865,0,0,1,27.34-9.21,132.164,132.164,0,0,1,28.976-3.25h0a158.844,158.844,0,0,1,58.054,11.021,150.839,150.839,0,0,1,26.388,13.514,140.316,140.316,0,0,1,23.122,18.619,124.434,124.434,0,0,1,17.817,22.633A141.944,141.944,0,0,1,778.8,442.081a159.505,159.505,0,0,1,7.324,27.712,167.15,167.15,0,0,1,0,56.409,159.159,159.159,0,0,1-7.33,27.679A142.027,142.027,0,0,1,766.323,579.7a124.944,124.944,0,0,1-17.8,22.623,140.326,140.326,0,0,1-23.113,18.64,150.978,150.978,0,0,1-26.393,13.543,158.545,158.545,0,0,1-58.059,11.058Zm0-294.128a131.157,131.157,0,0,0-28.758,3.226,140.861,140.861,0,0,0-27.147,9.145A152.532,152.532,0,0,0,560.2,378.076a161.76,161.76,0,0,0-40.071,40.67,154.989,154.989,0,0,0-13.845,24.793,142.254,142.254,0,0,0-8.806,26.689,126.432,126.432,0,0,0,0,55.542,142.2,142.2,0,0,0,8.813,26.682,155.083,155.083,0,0,0,13.854,24.792,161.965,161.965,0,0,0,40.083,40.678,152.647,152.647,0,0,0,24.851,14.269,140.819,140.819,0,0,0,27.137,9.149,130.936,130.936,0,0,0,28.736,3.228h0a157.548,157.548,0,0,0,57.691-10.988,149.974,149.974,0,0,0,26.218-13.453,139.32,139.32,0,0,0,22.948-18.506,123.942,123.942,0,0,0,17.66-22.442,141.026,141.026,0,0,0,12.376-25.641,158.152,158.152,0,0,0,7.283-27.5,166.148,166.148,0,0,0,0-56.071,158.5,158.5,0,0,0-7.277-27.538,140.945,140.945,0,0,0-12.375-25.672A123.432,123.432,0,0,0,747.809,394.3a139.312,139.312,0,0,0-22.957-18.485,149.834,149.834,0,0,0-26.212-13.424,157.842,157.842,0,0,0-57.687-10.951Z" transform="translate(-375.283 -266.662)" fill="#fff" opacity="0.755"/>
                  <path id="Tracé_46" data-name="Tracé 46" d="M768.619,690.174h-.189a118.952,118.952,0,0,1-24.957-2.7,123.932,123.932,0,0,1-23.5-7.636,130.123,130.123,0,0,1-21.461-11.975A134.312,134.312,0,0,1,664,633.264a130.114,130.114,0,0,1-11.9-21.439,123.669,123.669,0,0,1-7.567-23.412,117.3,117.3,0,0,1,0-49.593,123.683,123.683,0,0,1,7.566-23.415A130.087,130.087,0,0,1,664,493.965a134.261,134.261,0,0,1,34.514-34.591A130.1,130.1,0,0,1,719.972,447.4a123.953,123.953,0,0,1,23.5-7.634,119.014,119.014,0,0,1,24.96-2.7h.191a129.113,129.113,0,0,1,24.927,2.451,131.764,131.764,0,0,1,24.007,7.17A129.312,129.312,0,0,1,839.744,458.3a123.01,123.01,0,0,1,19.473,15.791,115.654,115.654,0,0,1,15.52,19.3,124.8,124.8,0,0,1,11.192,21.993,132.017,132.017,0,0,1,6.778,23.728,132.844,132.844,0,0,1,0,49.015,131.788,131.788,0,0,1-6.783,23.709,124.867,124.867,0,0,1-11.193,21.974,116.159,116.159,0,0,1-15.514,19.3,122.907,122.907,0,0,1-19.464,15.8,129.258,129.258,0,0,1-22.188,11.629,131.688,131.688,0,0,1-24.01,7.18A128.968,128.968,0,0,1,768.619,690.174Zm0-252.11h-.19a118.015,118.015,0,0,0-24.75,2.68,122.954,122.954,0,0,0-23.309,7.573,129.094,129.094,0,0,0-21.3,11.88,133.261,133.261,0,0,0-34.256,34.333A129.085,129.085,0,0,0,653.009,515.8,122.681,122.681,0,0,0,645.5,539.03a116.3,116.3,0,0,0,0,49.173,122.669,122.669,0,0,0,7.506,23.223A129.115,129.115,0,0,0,664.824,632.7a133.311,133.311,0,0,0,34.258,34.337,129.114,129.114,0,0,0,21.3,11.883,122.931,122.931,0,0,0,23.307,7.575,117.947,117.947,0,0,0,24.747,2.681h.188a127.961,127.961,0,0,0,24.738-2.436,130.689,130.689,0,0,0,23.828-7.125A128.259,128.259,0,0,0,839.2,668.075,121.91,121.91,0,0,0,858.506,652.4a115.158,115.158,0,0,0,15.38-19.131,123.872,123.872,0,0,0,11.1-21.8,130.781,130.781,0,0,0,6.731-23.529,131.846,131.846,0,0,0,0-48.647A131.018,131.018,0,0,0,885,515.747a123.8,123.8,0,0,0-11.1-21.816A114.649,114.649,0,0,0,858.51,474.8,122.009,122.009,0,0,0,839.2,459.137a128.309,128.309,0,0,0-22.017-11.526,130.76,130.76,0,0,0-23.824-7.115A128.11,128.11,0,0,0,768.621,438.064Z" transform="translate(-488.111 -332.482)" fill="#fff" opacity="0.755"/>
                  <path id="Tracé_47" data-name="Tracé 47" d="M897.6,734.75a101.678,101.678,0,0,1-21-2.2,103.346,103.346,0,0,1-19.653-6.277,106.541,106.541,0,0,1-17.861-9.886,109.114,109.114,0,0,1-28.551-28.725,107.373,107.373,0,0,1-9.794-17.9,104.3,104.3,0,0,1-6.207-19.643,101.928,101.928,0,0,1,0-41.829,104.318,104.318,0,0,1,6.205-19.645,107.363,107.363,0,0,1,9.792-17.905,109.075,109.075,0,0,1,28.548-28.724,106.51,106.51,0,0,1,17.861-9.885,103.342,103.342,0,0,1,19.655-6.275,101.708,101.708,0,0,1,21-2.2h.319a102.787,102.787,0,0,1,21.044,2.25,104.465,104.465,0,0,1,19.705,6.3,107.458,107.458,0,0,1,17.913,9.894,109.472,109.472,0,0,1,28.645,28.7,107.139,107.139,0,0,1,9.829,17.882,103.806,103.806,0,0,1,6.23,19.62,101.3,101.3,0,0,1,0,41.784,103.8,103.8,0,0,1-6.231,19.619,107.156,107.156,0,0,1-9.831,17.882,109.5,109.5,0,0,1-28.647,28.7,107.479,107.479,0,0,1-17.913,9.895,104.458,104.458,0,0,1-19.7,6.305,102.752,102.752,0,0,1-21.041,2.25Zm0-210.092a100.7,100.7,0,0,0-20.793,2.174,102.333,102.333,0,0,0-19.464,6.215,105.5,105.5,0,0,0-17.693,9.792A108.073,108.073,0,0,0,811.36,571.3a106.363,106.363,0,0,0-9.7,17.738,103.318,103.318,0,0,0-6.146,19.456,100.928,100.928,0,0,0,0,41.419,103.3,103.3,0,0,0,6.147,19.455,106.376,106.376,0,0,0,9.7,17.737,108.114,108.114,0,0,0,28.288,28.461,105.537,105.537,0,0,0,17.693,9.793,102.346,102.346,0,0,0,19.463,6.216A100.675,100.675,0,0,0,897.6,733.75h.315a101.752,101.752,0,0,0,20.836-2.228,103.454,103.454,0,0,0,19.515-6.245,106.468,106.468,0,0,0,17.746-9.8,108.5,108.5,0,0,0,28.385-28.44,106.146,106.146,0,0,0,9.739-17.715,102.8,102.8,0,0,0,6.171-19.43,100.3,100.3,0,0,0,0-41.372,102.809,102.809,0,0,0-6.17-19.43,106.142,106.142,0,0,0-9.737-17.715,108.475,108.475,0,0,0-28.383-28.439,106.457,106.457,0,0,0-17.746-9.8,103.457,103.457,0,0,0-19.516-6.244,101.779,101.779,0,0,0-20.839-2.228Z" transform="translate(-602.461 -398.28)" fill="#fff" opacity="0.755"/>
                  <path id="Ellipse_49" data-name="Ellipse 49" d="M84.036-.5a85.156,85.156,0,0,1,17.036,1.717A84.075,84.075,0,0,1,131.3,13.938a84.783,84.783,0,0,1,30.627,37.193A84.117,84.117,0,0,1,166.854,67a85.358,85.358,0,0,1,0,34.073,84.077,84.077,0,0,1-12.72,30.229,84.781,84.781,0,0,1-37.193,30.628,84.111,84.111,0,0,1-15.869,4.926,85.353,85.353,0,0,1-34.073,0,84.075,84.075,0,0,1-30.229-12.72A84.782,84.782,0,0,1,6.143,116.943a84.116,84.116,0,0,1-4.926-15.869A85.358,85.358,0,0,1,1.217,67a84.078,84.078,0,0,1,12.72-30.229A84.781,84.781,0,0,1,51.131,6.144,84.111,84.111,0,0,1,67,1.217,85.156,85.156,0,0,1,84.036-.5Zm0,168.075a84.155,84.155,0,0,0,16.836-1.7,83.074,83.074,0,0,0,29.869-12.569,83.782,83.782,0,0,0,30.266-36.754,83.115,83.115,0,0,0,4.867-15.68,84.359,84.359,0,0,0,0-33.672,83.078,83.078,0,0,0-12.569-29.87A83.781,83.781,0,0,0,116.552,7.065,83.112,83.112,0,0,0,100.872,2.2,84.354,84.354,0,0,0,67.2,2.2,83.075,83.075,0,0,0,37.331,14.767,83.782,83.782,0,0,0,7.064,51.521,83.114,83.114,0,0,0,2.2,67.2a84.358,84.358,0,0,0,0,33.672,83.078,83.078,0,0,0,12.569,29.87A83.782,83.782,0,0,0,51.52,161.01a83.112,83.112,0,0,0,15.68,4.867A84.155,84.155,0,0,0,84.036,167.575Z" transform="translate(191.222 230.717) rotate(-45)" fill="#fff" opacity="0.755"/>
                  <path id="Tracé_48" data-name="Tracé 48" d="M1146.454,697a56.1,56.1,0,0,1,12.507,1.428,60.464,60.464,0,0,1,11.769,4.032,65.973,65.973,0,0,1,10.743,6.262,70.17,70.17,0,0,1,9.432,8.119,71.052,71.052,0,0,1,7.837,9.606,67.915,67.915,0,0,1,5.956,10.727,61.789,61.789,0,0,1,3.788,11.482,53.723,53.723,0,0,1,0,23.742,61.777,61.777,0,0,1-3.788,11.484,67.918,67.918,0,0,1-5.956,10.728,71.048,71.048,0,0,1-7.837,9.606,70.164,70.164,0,0,1-9.431,8.118,65.958,65.958,0,0,1-10.741,6.261,60.443,60.443,0,0,1-11.767,4.031,56.129,56.129,0,0,1-12.681,1.427,61.756,61.756,0,0,1-24.577-5.184,64.66,64.66,0,0,1-10.783-5.984,66.078,66.078,0,0,1-17.218-17.314,64.7,64.7,0,0,1-5.9-10.758,62.513,62.513,0,0,1-3.739-11.778,60.56,60.56,0,0,1,0-25.017,62.492,62.492,0,0,1,3.737-11.777,64.7,64.7,0,0,1,5.9-10.758,66.074,66.074,0,0,1,17.218-17.316,64.647,64.647,0,0,1,10.784-5.985A61.751,61.751,0,0,1,1146.285,697Zm.007,126.055a55.078,55.078,0,0,0,12.281-1.4,59.449,59.449,0,0,0,11.572-3.965,64.959,64.959,0,0,0,10.578-6.166,69.167,69.167,0,0,0,9.3-8,70.059,70.059,0,0,0,7.726-9.471,66.925,66.925,0,0,0,5.869-10.569,60.784,60.784,0,0,0,3.727-11.3,52.724,52.724,0,0,0,0-23.309,60.786,60.786,0,0,0-3.727-11.3,66.92,66.92,0,0,0-5.869-10.569,70.059,70.059,0,0,0-7.726-9.471,69.166,69.166,0,0,0-9.3-8,64.966,64.966,0,0,0-10.579-6.167,59.468,59.468,0,0,0-11.574-3.966,55.107,55.107,0,0,0-12.284-1.4h-.167a60.756,60.756,0,0,0-24.186,5.1,63.648,63.648,0,0,0-10.617,5.892,65.072,65.072,0,0,0-16.957,17.053,63.693,63.693,0,0,0-5.809,10.592,59.986,59.986,0,0,0,0,47.782,63.7,63.7,0,0,0,5.81,10.591,65.081,65.081,0,0,0,16.957,17.052,63.659,63.659,0,0,0,10.616,5.892,60.762,60.762,0,0,0,24.181,5.1Z" transform="translate(-823.115 -529.992)" fill="#fff" opacity="0.755"/>
                  <path id="Tracé_49" data-name="Tracé 49" d="M1257.374,868.9h-1v0a41.534,41.534,0,0,1-16.045-3.414,43.419,43.419,0,0,1-22.629-22.773,41.5,41.5,0,0,1,0-32.653,43.458,43.458,0,0,1,22.634-22.775,41.5,41.5,0,0,1,16.536-3.419,38.862,38.862,0,0,1,16.3,3.65,44.263,44.263,0,0,1,7.208,4.186,47.049,47.049,0,0,1,15.579,19.031,37.4,37.4,0,0,1,0,31.3,47.016,47.016,0,0,1-15.575,19.031,44.252,44.252,0,0,1-7.208,4.185,38.95,38.95,0,0,1-15.8,3.646Zm-.5-84.037a40.51,40.51,0,0,0-16.141,3.337,42.458,42.458,0,0,0-22.11,22.249,40.5,40.5,0,0,0,0,31.87,42.42,42.42,0,0,0,22.1,22.246,40.549,40.549,0,0,0,16.148,3.335h0a37.888,37.888,0,0,0,15.886-3.558,43.242,43.242,0,0,0,7.045-4.09,46.015,46.015,0,0,0,15.241-18.621,36.4,36.4,0,0,0,0-30.5,46.05,46.05,0,0,0-15.245-18.621,43.27,43.27,0,0,0-7.045-4.091A37.867,37.867,0,0,0,1256.873,784.859Z" transform="translate(-923.107 -595.993)" fill="#fff" opacity="0.755"/>
                  <path id="Tracé_50" data-name="Tracé 50" d="M1352.859,913.945h0a21.027,21.027,0,0,1-8.356-1.723,21.943,21.943,0,0,1-11.453-11.506,21.048,21.048,0,0,1,0-16.559A21.95,21.95,0,0,1,1344.5,872.65a21.017,21.017,0,0,1,8.355-1.723,20.042,20.042,0,0,1,8.279,1.811,22.566,22.566,0,0,1,6.841,4.8,20.556,20.556,0,0,1,0,29.8,22.561,22.561,0,0,1-6.841,4.8A20.042,20.042,0,0,1,1352.859,913.945Zm0-42.018a20.026,20.026,0,0,0-7.964,1.642,20.95,20.95,0,0,0-10.928,10.98,20.048,20.048,0,0,0,0,15.775,20.942,20.942,0,0,0,10.928,10.979,20.032,20.032,0,0,0,7.961,1.642v.5l0-.5a19.049,19.049,0,0,0,7.865-1.723,21.567,21.567,0,0,0,6.539-4.588,19.558,19.558,0,0,0,0-28.4,21.571,21.571,0,0,0-6.539-4.589A19.044,19.044,0,0,0,1352.859,871.927Z" transform="translate(-1012.006 -662.151)" fill="#fff" opacity="0.755"/>
                  <path id="Tracé_51" data-name="Tracé 51" d="M965.82,1191.444l-1-.027a103.746,103.746,0,0,1,1.506-14.923,118.748,118.748,0,0,1,3.493-14.477,159.928,159.928,0,0,1,11.667-27.676c9.426-17.893,21.481-34.578,33.139-50.713,2.1-2.908,4.273-5.914,6.355-8.827,1.982-2.773,4.047-5.633,6.043-8.4,11.664-16.158,23.725-32.867,33.107-50.775A157.215,157.215,0,0,0,1071.665,988a116.342,116.342,0,0,0,3.39-14.415,101.605,101.605,0,0,0,1.381-14.838l1,.018a102.621,102.621,0,0,1-1.394,14.984,117.351,117.351,0,0,1-3.42,14.54,158.183,158.183,0,0,1-11.606,27.8c-9.416,17.971-21.5,34.709-33.182,50.9-2,2.765-4.06,5.625-6.041,8.4-2.083,2.915-4.257,5.923-6.358,8.831-11.638,16.107-23.672,32.763-33.065,50.594a158.94,158.94,0,0,0-11.6,27.5,117.734,117.734,0,0,0-3.464,14.355A102.74,102.74,0,0,0,965.82,1191.444Z" transform="translate(-733.499 -728.51)" fill="#fff" opacity="0.755"/>
                  <path id="Tracé_52" data-name="Tracé 52" d="M1457.481,1147.46a157.084,157.084,0,0,1-8.89-22.893,163.157,163.157,0,0,1-5.136-23.3c-2.156-14.794-2.509-30.59-1.079-48.29.192-2.379.4-4.794.6-7.129.634-7.465,1.289-15.184,1.6-22.681a165.993,165.993,0,0,0-.381-22.192,95.925,95.925,0,0,0-4.314-21.451,79.411,79.411,0,0,0-10.2-20.482l.822-.569a80.411,80.411,0,0,1,10.323,20.738,96.914,96.914,0,0,1,4.36,21.672,166.98,166.98,0,0,1,.384,22.325c-.313,7.518-.969,15.248-1.6,22.724-.2,2.334-.4,4.748-.595,7.125-1.423,17.624-1.073,33.346,1.072,48.065a162.166,162.166,0,0,0,5.1,23.158,156.079,156.079,0,0,0,8.833,22.747Z" transform="translate(-1086.656 -728.51)" fill="#fff" opacity="0.755"/>
                  <path id="Tracé_53" data-name="Tracé 53" d="M1539.158,1032.194c-5.7-2.232-10.785-4.446-15.533-6.768a142.573,142.573,0,0,1-14.393-8.043,109.521,109.521,0,0,1-25.065-21.815q-.669-.793-1.335-1.586c-4.586-5.453-9.328-11.093-14.951-15.721-11.2-9.218-24.856-14.593-37.947-19.029l.321-.947c13.181,4.466,26.938,9.884,38.262,19.2,5.694,4.687,10.466,10.362,15.081,15.85q.666.792,1.334,1.585a108.536,108.536,0,0,0,24.84,21.618,141.571,141.571,0,0,0,14.293,7.986c4.724,2.311,9.78,4.514,15.458,6.736Z" transform="translate(-1086.656 -728.51)" fill="#fff" opacity="0.755"/>
                  <path id="Tracé_54" data-name="Tracé 54" d="M1430.254,738.2l-.32-.947A201.921,201.921,0,0,0,1450,729.477a90.171,90.171,0,0,0,18.33-11.044c5.432-4.311,10.113-9.55,14.641-14.615l1.207-1.349a111.242,111.242,0,0,1,25.3-20.844A180.764,180.764,0,0,1,1539.16,667.4l.36.933a179.8,179.8,0,0,0-29.527,14.14,110.259,110.259,0,0,0-25.073,20.658l-1.206,1.348c-4.555,5.1-9.266,10.368-14.765,14.732a91.152,91.152,0,0,1-18.531,11.168A202.855,202.855,0,0,1,1430.254,738.2Z" transform="translate(-1086.656 -507.48)" fill="#fff" opacity="0.755"/>
                  <path id="Tracé_55" data-name="Tracé 55" d="M1430.505,372.3l-.822-.569a87,87,0,0,0,6.671-11.385,84.293,84.293,0,0,0,4.722-11.954,89.121,89.121,0,0,0,2.884-12.541,101.8,101.8,0,0,0,1.157-13.145c.27-11.022-.785-22.2-1.805-33.018-.32-3.388-.65-6.892-.935-10.337A205.01,205.01,0,0,1,1443.5,231.8a160.23,160.23,0,0,1,5.148-22.92,156.41,156.41,0,0,1,8.835-22.527l.9.436a155.39,155.39,0,0,0-8.778,22.382,159.218,159.218,0,0,0-5.115,22.776,204.027,204.027,0,0,0-1.115,47.32c.284,3.439.614,6.94.934,10.326,1.023,10.843,2.08,22.056,1.809,33.137A102.82,102.82,0,0,1,1444.948,336a90.121,90.121,0,0,1-2.917,12.682,85.285,85.285,0,0,1-4.778,12.1A87.992,87.992,0,0,1,1430.505,372.3Z" transform="translate(-1086.656 -141.764)" fill="#fff" opacity="0.755"/>
                  <path id="Tracé_56" data-name="Tracé 56" d="M1076.437,232.535a100.094,100.094,0,0,0-1.391-14.784,114.123,114.123,0,0,0-3.414-14.334,153.752,153.752,0,0,0-11.614-27.4c-9.448-17.737-21.594-34.243-33.341-50.206-1.88-2.555-3.824-5.2-5.694-7.76-1.975-2.708-4.032-5.5-6.021-8.2-11.739-15.937-23.877-32.416-33.366-50.134a156.366,156.366,0,0,1-11.744-27.447,116.431,116.431,0,0,1-3.516-14.394A102.174,102.174,0,0,1,964.82,3.01l1-.027a101.164,101.164,0,0,0,1.5,14.721,115.433,115.433,0,0,0,3.486,14.27,155.389,155.389,0,0,0,11.671,27.272c9.455,17.655,21.572,34.105,33.29,50.013,1.99,2.7,4.047,5.494,6.024,8.2,1.869,2.562,3.812,5.2,5.692,7.756,11.768,15.991,23.937,32.527,33.419,50.328a154.75,154.75,0,0,1,11.688,27.576,115.139,115.139,0,0,1,3.443,14.461,101.1,101.1,0,0,1,1.4,14.932Z" transform="translate(-733.499 -2.277)" fill="#fff" opacity="0.755"/>
                  <path id="Tracé_57" data-name="Tracé 57" d="M658.186,372.307c-6.762-9.289-15.614-18.349-27.061-27.7-10.23-8.353-21.035-15.777-31.484-22.956-15.9-10.922-32.428-21.485-48.414-31.7-5.236-3.346-10.651-6.806-15.964-10.227-20.613-13.276-42.526-27.668-63.114-42.961-22.683-16.849-41.574-33.155-57.754-49.849l.718-.7c16.142,16.655,34.993,32.926,57.632,49.742,20.564,15.275,42.46,29.657,63.059,42.923,5.311,3.421,10.725,6.88,15.961,10.225,15.993,10.219,32.531,20.786,48.442,31.718,9.979,6.856,21.289,14.626,31.551,23.005,11.515,9.4,20.424,18.523,27.237,27.883Z" transform="translate(-315.152 -141.764)" fill="#fff" opacity="0.755"/>
                  <path id="Tracé_58" data-name="Tracé 58" d="M384.761,738.2c-25.181-8.172-51.726-13.405-77.4-18.467l-2.847-.561c-23.893-4.715-48.253-9.164-71.811-13.466q-6.608-1.207-13.216-2.416c-5.541-1.015-11.182-2.041-16.637-3.033-24.486-4.454-49.806-9.059-74.6-14.184-27.834-5.752-51.974-11.55-73.8-17.725l.272-.962c21.8,6.168,45.922,11.96,73.732,17.707,24.786,5.122,50.1,9.727,74.581,14.18,5.455.992,11.1,2.018,16.638,3.033q6.607,1.21,13.215,2.416c23.562,4.3,47.926,8.753,71.825,13.469l2.847.561c25.7,5.067,52.275,10.306,77.513,18.5Z" transform="translate(-41.477 -507.48)" fill="#fff" opacity="0.755"/>
                  <path id="Tracé_59" data-name="Tracé 59" d="M54.72,1032.209l-.275-.961c21.835-6.253,45.964-12.218,73.766-18.238,24.773-5.363,50.064-10.264,74.523-15,5.492-1.064,11.171-2.165,16.75-3.252q6.625-1.291,13.25-2.579c23.547-4.579,47.895-9.313,71.778-14.279l2.971-.617c25.608-5.32,52.088-10.822,77.278-19l.309.951c-25.242,8.192-51.749,13.7-77.384,19.025l-2.971.617c-23.889,4.967-48.241,9.7-71.79,14.282q-6.625,1.288-13.25,2.578c-5.58,1.088-11.259,2.188-16.751,3.252-24.454,4.738-49.74,9.638-74.5,15C100.641,1020,76.533,1025.963,54.72,1032.209Z" transform="translate(-41.477 -728.51)" fill="#fff" opacity="0.755"/>
                  <path id="Tracé_60" data-name="Tracé 60" d="M415.113,1147.59l-.72-.694c16.205-16.835,35.11-33.349,57.8-50.487,19.375-14.637,39.225-28.1,63.07-43.81,5.333-3.514,10.768-7.068,16.024-10.5,16.167-10.571,32.883-21.5,48.954-32.79,10.342-7.264,21.037-14.775,31.125-23.143,11.318-9.388,20.092-18.448,26.825-27.7l.809.589c-6.782,9.318-15.612,18.437-26.995,27.879-10.118,8.393-20.83,15.916-31.188,23.192-16.084,11.3-32.808,22.233-48.982,32.808-5.256,3.437-10.69,6.99-16.021,10.5-23.829,15.7-43.664,29.153-63.018,43.773C450.148,1114.313,431.282,1130.793,415.113,1147.59Z" transform="translate(-315.152 -728.51)" fill="#fff" opacity="0.755"/>
                </g>
              </g>
            </g>
          </g>
        </g>
      </g>
    </g>
  </g>
</svg>
