<svg xmlns="http://www.w3.org/2000/svg" width="423.936" height="104.505" viewBox="0 0 423.936 104.505">
  <g transform="translate(7767.5 -6965.847)">
    <path id="Tracé_39" data-name="Tracé 39" d="M226.338,249.32c-2.559-12.072,118.551-44.782,194.971-69.985C214.171,213.564-1.955,256.911.014,271.7c1.972,14.814,145.646,8.789,355.163-12.456-77.923,4.993-126.365,1.742-128.838-9.92" transform="translate(-7765.5 6788.485)" fill="transparent"/>
    <path id="Tracé_39_-_Contour" data-name="Tracé 39 - Contour" d="M57.817,281.867c-18.495,0-32.819-.681-42.574-2.025A53.007,53.007,0,0,1,3.5,277.174,12.523,12.523,0,0,1-.086,275.16a5.079,5.079,0,0,1-1.883-3.2,4.031,4.031,0,0,1,.785-2.871A9.3,9.3,0,0,1,.949,267a37.758,37.758,0,0,1,7.308-3.943c6.056-2.637,15.164-5.71,27.072-9.134,22.417-6.447,54.885-14.208,96.5-23.068,38.9-8.282,84.53-17.261,135.626-26.69,49.183-9.076,100.837-18.092,153.528-26.8l.952,3.873c-20.188,6.658-43.88,13.959-66.791,21.019-31.357,9.663-63.781,19.655-87.763,28.163-12.862,4.563-22.317,8.339-28.905,11.543a50.472,50.472,0,0,0-7.92,4.562c-2.026,1.526-2.238,2.314-2.257,2.408.211.945,1.134,2.387,4.318,3.93a51.176,51.176,0,0,0,12.761,3.637c11.181,2,27.242,3.008,47.737,3.008,17.7,0,38.536-.76,61.932-2.259l.33,3.986c-65.37,6.629-124.263,11.778-175.042,15.3C129.37,280.073,88.148,281.867,57.817,281.867Zm-55.8-10.354c.132.371.863,1.118,2.945,1.938a50.093,50.093,0,0,0,10.827,2.428c9.575,1.319,23.715,1.987,42.028,1.987,30.24,0,71.368-1.791,122.242-5.324,33.457-2.323,70.445-5.352,110.489-9.045-19.511-.082-34.935-1.112-45.871-3.065a54.942,54.942,0,0,1-13.8-3.976,16,16,0,0,1-4.251-2.851,7.667,7.667,0,0,1-2.241-3.872,4.384,4.384,0,0,1,.663-3.249,10.528,10.528,0,0,1,2.316-2.537,43.935,43.935,0,0,1,8.18-5c6.531-3.281,16.069-7.148,29.158-11.823,24.209-8.645,57.282-18.837,89.267-28.694,13.57-4.182,27.413-8.448,40.635-12.613-42.488,7.155-84.156,14.491-124.2,21.868-50.335,9.272-95.468,18.126-134.143,26.315-41.264,8.737-73.779,16.428-96.644,22.859a278.644,278.644,0,0,0-27.78,9.029,50.243,50.243,0,0,0-7.474,3.621A6.434,6.434,0,0,0,2.017,271.514Z" transform="translate(-7765.5 6788.485)" fill="#000000"/>
  </g>
</svg>
