<svg xmlns="http://www.w3.org/2000/svg" width="770.441" height="115.586" viewBox="0 0 770.441 115.586">
  <g transform="translate(6975.676 -6899.539)">
    <path id="Tracé_40" data-name="Tracé 40" d="M2399.671,50.734c-.778-9.264-152.362-8.781-245.16-7.719,56.862,41.495-135.541,55.332-290.54,80.409-81.981,13.263-160.905,23.417-232.532,30.628,34.345-2.565,69.545-5.354,105.4-8.367,367.881-30.912,664.643-73.423,662.833-94.95" transform="translate(-8606.915 6859.079)" fill="transparent"/>
    <path id="Tracé_40_-_Contour" data-name="Tracé 40 - Contour" d="M1631.588,156.046l-.349-3.984c36.616-3.687,74.407-8.073,112.324-13.038,39.877-5.221,80.281-11.134,120.089-17.575,32.352-5.234,66.394-9.988,99.315-14.584,51.472-7.187,100.089-13.976,136.808-21.786,19.576-4.164,34.142-8.267,44.531-12.543a57.687,57.687,0,0,0,12.879-6.933c2.963-2.272,4.754-4.574,5.323-6.841a7.981,7.981,0,0,0-1.228-6.218c-1.5-2.494-4.171-5.157-7.948-7.912l-4.86-3.547,6.016-.069c32.164-.368,61.829-.555,88.17-.555,45.552,0,81.809.555,107.764,1.648,15.491.653,27.519,1.51,35.748,2.547a70.979,70.979,0,0,1,10.365,1.9c2.286.664,4.936,1.721,5.128,4.016a5.028,5.028,0,0,1-1.075,3.424,11.852,11.852,0,0,1-2.882,2.66,48.622,48.622,0,0,1-10.2,4.945c-8.629,3.271-21.572,6.858-38.469,10.659-16.533,3.72-37.042,7.69-60.958,11.8-23.674,4.069-50.9,8.313-80.908,12.612-60.9,8.723-131.918,17.522-211.1,26.153-81.967,8.935-169.131,17.3-259.071,24.855C1701.786,150.637,1666.319,153.452,1631.588,156.046ZM2160.055,44.953a25.612,25.612,0,0,1,4.655,5.531,11.926,11.926,0,0,1,1.678,9.25,13.226,13.226,0,0,1-2.407,4.8,23.442,23.442,0,0,1-4.362,4.24,61.542,61.542,0,0,1-13.791,7.458c-10.614,4.369-25.406,8.542-45.221,12.757-36.858,7.839-85.543,14.637-137.087,21.835-32.9,4.594-66.92,9.344-99.229,14.571-39.848,6.447-80.292,12.366-120.209,17.592l-1.653.216c87.87-7.427,173.03-15.619,253.214-24.36,79.133-8.626,150.11-17.419,210.962-26.136,29.976-4.294,57.161-8.531,80.8-12.595,23.849-4.1,44.291-8.057,60.758-11.762,16.714-3.76,29.475-7.292,37.928-10.5a45.631,45.631,0,0,0,9.338-4.492,6.22,6.22,0,0,0,2.173-2.133,15.114,15.114,0,0,0-4.039-1.312,103.5,103.5,0,0,0-10.79-1.638c-8.55-.938-20.573-1.715-35.735-2.309-25.63-1-60.748-1.514-104.377-1.514C2217.846,44.46,2190.082,44.626,2160.055,44.953Z" transform="translate(-8606.915 6859.079)" fill="#000000"/>
  </g>
</svg>
